<svg width="28" height="28" viewBox="0 0 28 28" fill="none" xmlns="http://www.w3.org/2000/svg">
<g filter="url(#filter0_d_150_308)">
<path d="M23.5613 4.87359C23.1822 4.41031 22.5924 4.12873 21.9821 4.12873H9.15889L8.75914 2.63901C8.52718 1.77302 7.72769 1.16895 6.80069 1.16895H4.6531C4.2953 1.16895 4 1.45052 4 1.79347C4 2.13562 4.29446 2.418 4.6531 2.418H6.80069C7.11654 2.418 7.39045 2.61936 7.47434 2.92139L10.0431 12.7077C10.275 13.5737 11.0745 14.1778 12.0015 14.1778H20.4028C21.3289 14.1778 22.1507 13.5737 22.3612 12.7077L23.9405 6.50575C24.0877 5.941 23.9619 5.33693 23.5613 4.87365L23.5613 4.87359ZM22.6566 6.22252L21.0773 12.4245C20.9934 12.7265 20.7195 12.9279 20.4036 12.9279H12.0015C11.6857 12.9279 11.4118 12.7265 11.3279 12.4245L9.49611 5.39756H21.983C22.1936 5.39756 22.4042 5.49824 22.5308 5.65948C22.6567 5.81994 22.7192 6.0213 22.6567 6.22266L22.6566 6.22252Z" fill="#43464E"/>
<path d="M12.4444 14.9814C11.2443 14.9814 10.2549 15.9276 10.2549 17.0751C10.2549 18.2226 11.2444 19.1688 12.4444 19.1688C13.6444 19.1696 14.6339 18.2234 14.6339 17.0757C14.6339 15.928 13.6444 14.9812 12.4444 14.9812V14.9814ZM12.4444 17.9011C11.9599 17.9011 11.5807 17.5385 11.5807 17.0752C11.5807 16.6119 11.9599 16.2493 12.4444 16.2493C12.9288 16.2493 13.308 16.6119 13.308 17.0752C13.3072 17.5188 12.9075 17.9011 12.4444 17.9011Z" fill="#43464E"/>
<path d="M19.6875 14.9814C18.4875 14.9814 17.498 15.9277 17.498 17.0752C17.498 18.2226 18.4876 19.1689 19.6875 19.1689C20.8875 19.1689 21.877 18.2226 21.877 17.0752C21.8565 15.9284 20.8875 14.9814 19.6875 14.9814ZM19.6875 17.9011C19.2031 17.9011 18.8239 17.5385 18.8239 17.0752C18.8239 16.612 19.2031 16.2493 19.6875 16.2493C20.172 16.2493 20.5512 16.612 20.5512 17.0752C20.5512 17.5188 20.1506 17.9011 19.6875 17.9011Z" fill="#43464E"/>
</g>
<defs>
<filter id="filter0_d_150_308" x="0" y="0" width="28" height="28" filterUnits="userSpaceOnUse" color-interpolation-filters="sRGB">
<feFlood flood-opacity="0" result="BackgroundImageFix"/>
<feColorMatrix in="SourceAlpha" type="matrix" values="0 0 0 0 0 0 0 0 0 0 0 0 0 0 0 0 0 0 127 0" result="hardAlpha"/>
<feOffset dy="4"/>
<feGaussianBlur stdDeviation="2"/>
<feComposite in2="hardAlpha" operator="out"/>
<feColorMatrix type="matrix" values="0 0 0 0 0 0 0 0 0 0 0 0 0 0 0 0 0 0 0.25 0"/>
<feBlend mode="normal" in2="BackgroundImageFix" result="effect1_dropShadow_150_308"/>
<feBlend mode="normal" in="SourceGraphic" in2="effect1_dropShadow_150_308" result="shape"/>
</filter>
</defs>
</svg>
