<svg width="19" height="26" viewBox="0 0 19 26" fill="none" xmlns="http://www.w3.org/2000/svg">
<g filter="url(#filter0_d_150_307)">
<path d="M9.13 14.798L10.138 14.816V17.426H9.13V14.798ZM9.22 14.6V3.638L10.03 3.512V14.636L9.22 14.6ZM9.13 0.829999H10.138V3.404L9.13 3.53V0.829999ZM13.144 5.402C13 5.234 12.808 5.072 12.568 4.916C12.328 4.76 12.058 4.622 11.758 4.502C11.458 4.37 11.128 4.268 10.768 4.196C10.42 4.112 10.054 4.07 9.67 4.07C8.686 4.07 7.96 4.256 7.492 4.628C7.024 5 6.79 5.51 6.79 6.158C6.79 6.614 6.91 6.974 7.15 7.238C7.39 7.502 7.756 7.718 8.248 7.886C8.752 8.054 9.388 8.228 10.156 8.408C11.044 8.6 11.812 8.834 12.46 9.11C13.108 9.386 13.606 9.758 13.954 10.226C14.302 10.682 14.476 11.294 14.476 12.062C14.476 12.674 14.356 13.208 14.116 13.664C13.888 14.108 13.564 14.48 13.144 14.78C12.724 15.068 12.232 15.284 11.668 15.428C11.104 15.56 10.492 15.626 9.832 15.626C9.184 15.626 8.548 15.56 7.924 15.428C7.312 15.284 6.73 15.08 6.178 14.816C5.626 14.552 5.11 14.222 4.63 13.826L5.404 12.458C5.596 12.662 5.842 12.866 6.142 13.07C6.454 13.262 6.802 13.442 7.186 13.61C7.582 13.778 8.008 13.916 8.464 14.024C8.92 14.12 9.388 14.168 9.868 14.168C10.78 14.168 11.488 14.006 11.992 13.682C12.496 13.346 12.748 12.86 12.748 12.224C12.748 11.744 12.604 11.36 12.316 11.072C12.04 10.784 11.626 10.544 11.074 10.352C10.522 10.16 9.85 9.968 9.058 9.776C8.194 9.56 7.468 9.326 6.88 9.074C6.292 8.81 5.848 8.468 5.548 8.048C5.26 7.628 5.116 7.082 5.116 6.41C5.116 5.594 5.314 4.904 5.71 4.34C6.106 3.776 6.652 3.35 7.348 3.062C8.044 2.774 8.83 2.63 9.706 2.63C10.282 2.63 10.816 2.69 11.308 2.81C11.812 2.93 12.28 3.098 12.712 3.314C13.144 3.53 13.54 3.788 13.9 4.088L13.144 5.402Z" fill="#1D1F22"/>
</g>
<defs>
<filter id="filter0_d_150_307" x="0.629883" y="0.830078" width="17.8462" height="24.5959" filterUnits="userSpaceOnUse" color-interpolation-filters="sRGB">
<feFlood flood-opacity="0" result="BackgroundImageFix"/>
<feColorMatrix in="SourceAlpha" type="matrix" values="0 0 0 0 0 0 0 0 0 0 0 0 0 0 0 0 0 0 127 0" result="hardAlpha"/>
<feOffset dy="4"/>
<feGaussianBlur stdDeviation="2"/>
<feComposite in2="hardAlpha" operator="out"/>
<feColorMatrix type="matrix" values="0 0 0 0 0 0 0 0 0 0 0 0 0 0 0 0 0 0 0.25 0"/>
<feBlend mode="normal" in2="BackgroundImageFix" result="effect1_dropShadow_150_307"/>
<feBlend mode="normal" in="SourceGraphic" in2="effect1_dropShadow_150_307" result="shape"/>
</filter>
</defs>
</svg>
